<?xml version="1.0" encoding="UTF-8"?>
<svg width="88px" height="78px" viewBox="0 0 88 78" version="1.1" xmlns="http://www.w3.org/2000/svg" xmlns:xlink="http://www.w3.org/1999/xlink">
    <!-- Generator: Sketch 40.1 (33804) - http://www.bohemiancoding.com/sketch -->
    <title>checked</title>
    <desc>Created with Sketch.</desc>
    <defs></defs>
    <g id="Yupi" stroke="none" stroke-width="1" fill="none" fill-rule="evenodd">
        <g id="1Landing" transform="translate(-1056.000000, -518.000000)" fill="#5FD7B0">
            <g id="Group" transform="translate(915.000000, 472.000000)">
                <g id="Group-7" transform="translate(46.000000, 46.000000)">
                    <g id="checked" transform="translate(95.000000, 0.000000)">
                        <g id="Layer_1">
                            <path d="M24.9763397,32.0136737 C23.7180246,30.7362757 21.6687685,30.7362757 20.3924775,31.9956822 C19.1161864,33.2550886 19.1161864,35.3061219 20.3745015,36.5835199 L35.7259461,52.0562275 C36.3371278,52.6679392 37.1460446,53.0097781 38.0088893,53.0097781 L38.0268652,53.0097781 C38.8897099,53.0097781 39.6986268,52.6679392 40.3098084,52.074219 L87.0472275,5.54814709 C88.3055427,4.28874065 88.3235186,2.23770732 87.0652035,0.960309367 C85.8068883,-0.317088586 83.7576323,-0.317088586 82.4813412,0.942317847 L65.9614611,17.368576 C58.9328723,8.71465469 48.3630252,3.64104592 37.1280687,3.64104592 C31.879097,3.64104592 26.8098846,4.72053714 22.064239,6.82554504 C17.4803767,8.87657837 13.3998405,11.7732132 9.9664378,15.4794664 C6.53303509,19.1677281 3.92652517,23.4317184 2.21881178,28.1454968 C0.439194669,33.0571819 -0.279842548,38.2207483 0.0976519908,43.5102553 C1.37394305,61.8076316 16.1321819,76.5966614 34.4137032,77.9100424 C35.3124997,77.9820085 36.2292722,78 37.1280687,78 C45.6306838,78 53.845684,75.1213567 60.4608264,69.7598836 C67.6871505,63.930631 72.4327961,55.6725231 73.8528946,46.5328307 C74.1405095,44.6617126 74.2843169,42.7366199 74.2843169,40.8115272 C74.2843169,39.0303667 72.8282666,37.5730535 71.0486494,37.5730535 C69.2690323,37.5730535 67.812982,39.0303667 67.812982,40.8115272 C67.812982,42.394781 67.6871505,43.9780348 67.4534634,45.5432971 C65.0446887,61.1959199 50.735848,72.5665608 34.8810774,71.433095 C19.7992718,70.3536038 7.61159092,58.1553529 6.55101102,43.0424757 C5.93982938,34.4065459 8.83395419,26.1844211 14.6941075,19.8873889 C20.4823571,13.6803143 28.6614055,10.1179933 37.1280687,10.1179933 C46.61936,10.1179933 55.5354215,14.5259158 61.341647,21.9744053 L38.0448412,45.1834667 L24.9763397,32.0136737 L24.9763397,32.0136737 Z" id="Shape"></path>
                        </g>
                    </g>
                </g>
            </g>
        </g>
    </g>
</svg>