<?xml version="1.0" encoding="UTF-8"?>
<svg width="78px" height="76px" viewBox="0 0 78 76" version="1.1" xmlns="http://www.w3.org/2000/svg" xmlns:xlink="http://www.w3.org/1999/xlink">
    <!-- Generator: Sketch 40.1 (33804) - http://www.bohemiancoding.com/sketch -->
    <title>Layer_1</title>
    <desc>Created with Sketch.</desc>
    <defs></defs>
    <g id="Yupi" stroke="none" stroke-width="1" fill="none" fill-rule="evenodd">
        <g id="1Landing" transform="translate(-305.000000, -519.000000)" fill="#5FD7B0">
            <g id="Group-4" transform="translate(155.000000, 472.000000)">
                <g id="Group-5" transform="translate(46.000000, 47.000000)">
                    <g id="Layer_1" transform="translate(104.000000, 0.000000)">
                        <path d="M72.0277425,47.7501148 C72.0905191,47.3451967 72.1376016,46.9558525 72.1846841,46.5509344 C72.2003783,46.4730656 72.2003783,46.3951967 72.2003783,46.3173279 C72.2160724,46.1304426 72.2317666,45.9435574 72.2474608,45.7566721 C72.2631549,45.6632295 72.2631549,45.5697869 72.2631549,45.4607705 C72.2788491,45.289459 72.2945433,45.1181475 72.2945433,44.9468361 C72.2945433,44.8533934 72.3102374,44.744377 72.3102374,44.6509344 C72.3259316,44.4640492 72.3259316,44.2927377 72.3259316,44.1058525 C72.3259316,44.0124098 72.3259316,43.934541 72.3416258,43.8410984 C72.3416258,43.5763443 72.3573199,43.3115902 72.3573199,43.0468361 C72.3573199,32.8460164 67.7275412,23.3460164 59.6450463,17.0230656 C58.4209014,16.0574918 56.6474608,16.2755246 55.6744225,17.4902787 C54.7013843,18.7050328 54.9211026,20.4648689 56.1452475,21.4304426 C62.8623501,26.694377 66.7074205,34.5747049 66.7074205,43.0624098 C66.7074205,43.2804426 66.7074205,43.4984754 66.6917264,43.732082 L66.6917264,43.9501148 C66.6917264,44.1058525 66.6760322,44.2460164 66.6760322,44.4017541 C66.6760322,44.479623 66.660338,44.5730656 66.660338,44.6509344 C66.6446439,44.7910984 66.6446439,44.9312623 66.6289497,45.087 C66.6289497,45.1648689 66.6132555,45.2427377 66.6132555,45.3206066 C66.5975614,45.4763443 66.5818672,45.632082 66.566173,45.7878197 C66.566173,45.834541 66.5504789,45.8812623 66.5504789,45.9435574 C66.1738189,45.9124098 65.8128531,45.8968361 65.420499,45.8968361 C58.5464547,45.8968361 52.959332,51.4410984 52.959332,58.2624098 C52.959332,59.8042131 54.2305594,61.0656885 55.7842817,61.0656885 C57.338004,61.0656885 58.6092314,59.8042131 58.6092314,58.2624098 C58.6092314,54.5402787 61.6695936,51.5033934 65.420499,51.5033934 C69.1714044,51.5033934 72.2317666,54.5402787 72.2317666,58.2624098 C72.2317666,61.984541 69.1714044,65.0214262 65.420499,65.0214262 C63.8667767,65.0214262 62.5955493,66.2829016 62.5955493,67.8247049 C62.5955493,69.3665082 63.8667767,70.6279836 65.420499,70.6279836 C72.2945433,70.6279836 77.881666,65.0837213 77.881666,58.2624098 C77.8973602,53.8083115 75.5589296,49.9304426 72.0277425,47.7501148 L72.0277425,47.7501148 Z" id="Shape"></path>
                        <path d="M49.1613441,6.04355738 C47.4349859,3.20913115 44.7198954,1.21568852 41.4868974,0.437 C38.2538994,-0.357262295 34.9110423,0.141098361 32.0547042,1.85421311 C29.1983662,3.56732787 27.1895131,6.26159016 26.4048048,9.46978689 C26.1693924,10.3886393 26.0595332,11.3230656 26.043839,12.2574918 C24.5999759,12.8648689 23.187501,13.5812623 21.8378028,14.3910984 C13.0333763,19.6706066 7.24222938,28.5009344 5.95530785,38.639459 C5.78267203,40.1656885 6.88126358,41.5673279 8.41929175,41.7697869 C8.54484507,41.7853607 8.65470423,41.7853607 8.78025755,41.7853607 C10.1770382,41.7853607 11.4011831,40.741918 11.5738189,39.3402787 C12.6410221,30.9148689 17.4591308,23.5640492 24.7726117,19.1878197 C25.6044024,18.689459 26.4518873,18.2378197 27.3150664,17.8329016 C27.472008,18.1599508 27.660338,18.487 27.848668,18.8140492 C30.1870986,22.6607705 34.314664,24.794377 38.5363944,24.794377 C40.7335775,24.794377 42.9464547,24.2181475 44.9553078,23.0189672 C46.2893119,22.2247049 46.7130543,20.4960164 45.9126519,19.1722459 C45.1122495,17.8484754 43.3701972,17.4279836 42.0361932,18.2222459 C38.8188893,20.1533934 34.6285473,19.1255246 32.6824708,15.9329016 C30.7363944,12.7402787 31.7722093,8.58208197 34.9895131,6.65093443 C36.5432354,5.7165082 38.3794527,5.43618033 40.1371992,5.8722459 C41.8949457,6.30831148 43.3858913,7.39847541 44.3275412,8.94027869 C45.1279437,10.2640492 46.869996,10.684541 48.204,9.89027869 C49.538004,9.09601639 49.9617465,7.36732787 49.1613441,6.04355738 L49.1613441,6.04355738 Z" id="Shape"></path>
                        <path d="M53.053497,69.7714262 C52.4571187,68.3386393 50.8092314,67.6533934 49.3653682,68.2451967 C41.4555091,71.484541 32.6353883,70.9706066 25.18066,66.8279836 C25.1649658,66.8279836 25.1649658,66.8124098 25.1492716,66.8124098 C24.9609416,66.7033934 24.7726117,66.6099508 24.5999759,66.5009344 C24.5371992,66.4697869 24.4744225,66.4230656 24.4116459,66.391918 C24.2860926,66.3140492 24.1605392,66.2361803 24.0192918,66.1583115 C23.9408209,66.1115902 23.8780443,66.0648689 23.8152676,66.0181475 C23.6897143,65.9402787 23.5798551,65.8624098 23.4543018,65.784541 C23.3915252,65.7378197 23.3130543,65.6910984 23.2502777,65.644377 C23.1247243,65.5665082 22.999171,65.4730656 22.8736177,65.379623 C22.8265352,65.3484754 22.7951469,65.3173279 22.7480644,65.2861803 C22.9520885,64.9747049 23.1561127,64.6632295 23.3444427,64.3361803 C26.702994,58.387 24.5528934,50.8337213 18.5577223,47.5165082 C17.19233,46.7533934 15.481666,47.2361803 14.7126519,48.5910984 C13.9436378,49.9460164 14.4301569,51.6435574 15.7955493,52.4066721 C19.0756298,54.2288033 20.236998,58.3558525 18.4164748,61.5951967 C17.1766358,63.8066721 14.8538994,65.0525738 12.4683863,65.0525738 C11.3384064,65.0525738 10.2084266,64.7722459 9.15691751,64.1960164 C5.87683702,62.3738852 4.71546881,58.2468361 6.53599195,55.0074918 C7.30500604,53.6525738 6.81848692,51.9550328 5.45309457,51.191918 C4.08770221,50.4288033 2.37703823,50.9115902 1.60802414,52.2665082 C-1.78191549,58.2468361 0.368185111,65.8001148 6.36335614,69.1329016 C8.27804427,70.2074918 10.3653682,70.7058525 12.4213038,70.7058525 C14.5243219,70.7058525 16.5959517,70.1763443 18.4478632,69.179623 C18.5577223,69.2574918 18.6518873,69.3353607 18.7617465,69.4132295 C18.7774406,69.4288033 18.7931348,69.4288033 18.808829,69.444377 C19.0128531,69.584541 19.2168773,69.7402787 19.4209014,69.8804426 C19.4836781,69.9271639 19.5621489,69.9738852 19.6249256,70.0206066 C19.7818672,70.129623 19.9231147,70.2230656 20.0800563,70.332082 C20.1585272,70.3788033 20.236998,70.4410984 20.331163,70.4878197 C20.4724105,70.5812623 20.6293521,70.6747049 20.7705996,70.7681475 C20.8490704,70.8148689 20.9432354,70.8771639 21.0217062,70.9238852 C21.1786479,71.0173279 21.3355895,71.1107705 21.4925312,71.2042131 C21.571002,71.2509344 21.6337787,71.2976557 21.7122495,71.3288033 C21.947662,71.4689672 22.1830744,71.5935574 22.4184869,71.7337213 C27.4877022,74.5525738 33.0905191,75.9697869 38.7090302,75.9697869 C43.0406197,75.9697869 47.3722093,75.1288033 51.5154688,73.4312623 C52.959332,72.839459 53.6498753,71.2042131 53.053497,69.7714262 L53.053497,69.7714262 Z" id="Shape"></path>
                    </g>
                </g>
            </g>
        </g>
    </g>
</svg>