<?xml version="1.0" encoding="UTF-8"?>
<svg width="80px" height="38px" viewBox="0 0 80 38" version="1.1" xmlns="http://www.w3.org/2000/svg" xmlns:xlink="http://www.w3.org/1999/xlink">
    <!-- Generator: Sketch 40.1 (33804) - http://www.bohemiancoding.com/sketch -->
    <title>Yupi</title>
    <desc>Created with Sketch.</desc>
    <defs></defs>
    <g id="Yupi" stroke="none" stroke-width="1" fill="none" fill-rule="evenodd">
        <g id="3aPanel" transform="translate(-154.000000, -36.000000)" stroke="#FFFFFF" stroke-width="1.79999989" fill="#FFFFFF">
            <path d="M172.374307,37 L172.374307,38.9396552 C172.374307,42.0948434 171.792613,44.9849007 170.629206,47.6099138 C169.465799,50.2349269 167.771853,52.2327518 165.547317,53.6034483 L165.547317,64.1551724 L161.942052,64.1551724 L161.942052,53.6810345 C159.717516,52.3362002 158.004393,50.377168 156.802632,47.8038793 C155.600871,45.2305906 155,42.3922569 155,39.2887931 L155,37 L158.681972,37 L158.681972,38.9396552 C158.681972,41.6034616 159.059115,43.8857664 159.813412,45.7866379 C160.567709,47.6875095 161.87812,49.2456836 163.744684,50.4612069 C167.094273,48.2111956 168.769043,44.3707168 168.769043,38.9396552 L168.769043,37 L172.374307,37 Z M194.405872,64.1551724 L187.770651,64.1551724 C184.93245,64.1551724 182.899714,63.7284525 181.672384,62.875 C180.572901,62.1249963 179.876145,61.2262983 179.582098,60.1788793 C179.28805,59.1314603 179.141028,57.7543189 179.141028,56.0474138 L179.141028,45.5344828 L182.516169,45.5344828 L182.516169,56.0086207 C182.516169,56.4741403 182.528954,56.8685329 182.554523,57.1918103 C182.580093,57.5150878 182.669584,57.9288768 182.823,58.4331897 C182.976417,58.9375025 183.193753,59.3512915 183.475016,59.674569 C183.756279,59.9978464 184.165383,60.2823264 184.70234,60.5280172 C185.239297,60.7737081 185.891307,60.8965517 186.658388,60.8965517 L191.030731,60.8965517 L191.030731,45.5344828 L194.405872,45.5344828 L194.405872,64.1551724 Z M201.93967,73 L201.93967,54.8448276 C201.93967,53.4999933 202.182576,52.2327646 202.668394,51.0431034 C203.154212,49.8534423 203.819006,48.8254354 204.662795,47.9590517 C205.506585,47.0926681 206.503776,46.4073301 207.654398,45.9030172 C208.80502,45.3987044 210.032332,45.1465517 211.33637,45.1465517 C212.640409,45.1465517 213.861329,45.3987044 214.999166,45.9030172 C216.137003,46.4073301 217.134194,47.0991335 217.990769,47.9784483 C218.847343,48.857763 219.518529,49.88577 220.004347,51.0625 C220.490165,52.23923 220.733071,53.4999933 220.733071,54.8448276 C220.733071,56.1896619 220.496558,57.4504252 220.023524,58.6271552 C219.550491,59.8038852 218.892089,60.8318922 218.048299,61.7112069 C217.20451,62.5905216 216.207319,63.2823251 215.056697,63.7866379 C213.906075,64.2909508 212.665978,64.5431034 211.33637,64.5431034 C209.69993,64.5431034 208.178575,64.1551763 206.772259,63.3793103 L206.772259,59.887931 C208.025159,60.8189702 209.50816,61.2844828 211.221309,61.2844828 C212.141807,61.2844828 212.979191,61.1228464 213.733488,60.799569 C214.487785,60.4762915 215.12701,60.0301753 215.651182,59.4612069 C216.175354,58.8922385 216.578066,58.213366 216.859329,57.424569 C217.140592,56.6357719 217.281222,55.7758667 217.281222,54.8448276 C217.281222,53.9137884 217.140592,53.0538833 216.859329,52.2650862 C216.578066,51.4762892 216.181746,50.7974166 215.670359,50.2284483 C215.158971,49.6594799 214.538923,49.2133637 213.810196,48.8900862 C213.081468,48.5668087 212.256868,48.4051724 211.33637,48.4051724 C210.441442,48.4051724 209.629627,48.5603433 208.900899,48.8706897 C208.172172,49.181036 207.545731,49.6206868 207.021559,50.1896552 C206.497387,50.7586235 206.094675,51.4374961 205.813412,52.2262931 C205.532149,53.0150902 205.391519,53.8879262 205.391519,54.8448276 L205.391519,73 L201.93967,73 Z M232.485796,64.1551724 L229.110654,64.1551724 L229.110654,48.7931034 L225.965636,48.7931034 L227.499791,45.5344828 L232.485796,45.5344828 L232.485796,64.1551724 Z M228.957239,41.6551724 C228.624837,41.215515 228.458638,40.7370716 228.458638,40.2198276 C228.458638,39.7025836 228.624837,39.2306056 228.957239,38.8038793 C229.289641,38.377153 229.801021,38.1637931 230.491394,38.1637931 C231.181767,38.1637931 231.693147,38.377153 232.025549,38.8038793 C232.357951,39.2306056 232.52415,39.7025836 232.52415,40.2198276 C232.52415,40.7370716 232.357951,41.2090496 232.025549,41.6357759 C231.693147,42.0625021 231.181767,42.2758621 230.491394,42.2758621 C229.801021,42.2758621 229.289641,42.0689676 228.957239,41.6551724 L228.957239,41.6551724 Z" id="Yupi"></path>
        </g>
    </g>
</svg>