<?xml version="1.0" encoding="UTF-8"?>
<svg width="88px" height="76px" viewBox="0 0 88 76" version="1.1" xmlns="http://www.w3.org/2000/svg" xmlns:xlink="http://www.w3.org/1999/xlink">
    <!-- Generator: Sketch 40.1 (33804) - http://www.bohemiancoding.com/sketch -->
    <title>paper-plane-1</title>
    <desc>Created with Sketch.</desc>
    <defs></defs>
    <g id="Yupi" stroke="none" stroke-width="1" fill="none" fill-rule="evenodd">
        <g id="1Landing" transform="translate(-676.000000, -518.000000)" fill="#5FD7B0">
            <g id="Group-2" transform="translate(535.000000, 472.000000)">
                <g id="Group-6" transform="translate(46.000000, 46.000000)">
                    <g id="paper-plane-1" transform="translate(95.000000, 0.000000)">
                        <g id="Layer_1">
                            <path d="M86.8108987,0.723235815 C85.8730836,-0.0485574277 84.5745703,-0.210095548 83.4564061,0.274518813 L3.14696664,35.1308555 C1.10902218,36.0103408 -0.117351472,38.020593 0.0088928752,40.2282806 C0.135137222,42.4359683 1.59596466,44.2846823 3.72408365,44.9128861 L23.5264112,50.8718479 C25.2397273,51.3923596 27.0612529,50.4231309 27.5662303,48.7180063 C28.0712077,47.0128817 27.1153576,45.200065 25.4020415,44.697502 L8.82796224,39.7077689 L71.5714026,12.4796213 L34.5637741,49.238518 C34.5457392,49.2564667 34.5277043,49.2923641 34.4916345,49.3103127 C34.4375297,49.3641588 34.4014599,49.4000561 34.3473552,49.4539022 C34.3112854,49.4897995 34.2752156,49.5436456 34.2571807,49.5795429 C34.2391458,49.6154403 34.2030759,49.6513377 34.185041,49.687235 C34.1670061,49.7051837 34.1670061,49.7231324 34.1670061,49.7231324 C34.1309363,49.7590297 34.1129014,49.8128758 34.0768316,49.8487731 C34.0407618,49.9026192 34.0227269,49.9564652 33.9866571,50.0103113 C33.9686222,50.0462086 33.9505872,50.1000547 33.9325523,50.135952 C33.8964825,50.1897981 33.8784476,50.2615928 33.8423778,50.3154388 C33.8243429,50.3513362 33.806308,50.3872335 33.806308,50.4231309 C33.7882731,50.4949256 33.7522033,50.5487717 33.7341684,50.6205664 C33.7161335,50.6564638 33.7161335,50.6923611 33.6980986,50.7282585 C33.6800636,50.8000532 33.6620287,50.8718479 33.6439938,50.9436426 C33.6439938,50.97954 33.6259589,51.0154374 33.6259589,51.0513347 C33.607924,51.1231294 33.607924,51.1949242 33.607924,51.2667189 L33.607924,51.3923596 L33.607924,51.5897951 L33.607924,51.6795385 L34.581809,70.0769356 C34.6900184,72.0871877 35.9885317,73.8282097 37.9002318,74.5102596 C38.4593139,74.707695 39.018396,74.7974384 39.5774781,74.7974384 C40.9661659,74.7974384 42.3187839,74.2230807 43.2926689,73.1461599 L50.7050156,64.9974591 L65.31329,75.0666686 C66.2150353,75.6769238 67.243025,76 68.3070845,76 C68.9563411,76 69.6236327,75.8743592 70.2548544,75.6230777 C71.8960309,74.9769252 73.0863347,73.5589795 73.4470329,71.8538549 L87.9290629,3.90015219 C88.1815516,2.7155393 87.7487139,1.49502906 86.8108987,0.723235815 L86.8108987,0.723235815 Z M40.8940263,66.2000207 L40.4611886,57.9256792 L45.3486483,61.300031 L40.8940263,66.2000207 L40.8940263,66.2000207 Z M67.4955137,68.6948872 L41.9039811,51.0513347 L79.1099936,14.0950025 L67.4955137,68.6948872 L67.4955137,68.6948872 Z" id="Shape"></path>
                        </g>
                    </g>
                </g>
            </g>
        </g>
    </g>
</svg>